<svg xmlns="http://www.w3.org/2000/svg" xmlns:xlink="http://www.w3.org/1999/xlink" viewBox="0 0 816.91 974.2"><defs><style>.cls-1{isolation:isolate;}.cls-2{fill:url(#linear-gradient);}.cls-19,.cls-23,.cls-25,.cls-26,.cls-3,.cls-4{opacity:0.5;}.cls-3{mix-blend-mode:multiply;fill:url(#linear-gradient-2);}.cls-4,.cls-5{fill:#fff;}.cls-23,.cls-25,.cls-26,.cls-4,.cls-5{mix-blend-mode:overlay;}.cls-5{opacity:0.85;}.cls-6{fill:url(#linear-gradient-3);}.cls-7{fill:url(#linear-gradient-4);}.cls-8{fill:url(#linear-gradient-5);}.cls-9{fill:url(#linear-gradient-6);}.cls-10{fill:url(#linear-gradient-7);}.cls-11{fill:url(#linear-gradient-8);}.cls-12{fill:url(#linear-gradient-9);}.cls-13{fill:url(#linear-gradient-10);}.cls-14{fill:url(#linear-gradient-11);}.cls-15{fill:url(#linear-gradient-12);}.cls-16{fill:url(#linear-gradient-13);}.cls-17{fill:url(#linear-gradient-14);}.cls-18{fill:url(#linear-gradient-15);}.cls-19,.cls-21{fill:#510071;}.cls-20,.cls-27{opacity:0.35;}.cls-22{fill:url(#linear-gradient-16);}.cls-23{fill:url(#linear-gradient-17);}.cls-24{fill:url(#linear-gradient-18);}.cls-25{fill:url(#linear-gradient-19);}.cls-26{fill:url(#linear-gradient-20);}.cls-27{mix-blend-mode:color-burn;fill:url(#linear-gradient-21);}.cls-28{opacity:0.25;mix-blend-mode:screen;fill:url(#radial-gradient);}</style><linearGradient id="linear-gradient" x1="104.43" y1="312.35" x2="830.71" y2="686.24" gradientUnits="userSpaceOnUse"><stop offset="0" stop-color="#62f2fe"/><stop offset="0.17" stop-color="#63c1e8"/><stop offset="0.47" stop-color="#656fc4"/><stop offset="0.72" stop-color="#6733aa"/><stop offset="0.9" stop-color="#680e99"/><stop offset="0.99" stop-color="#680093"/></linearGradient><linearGradient id="linear-gradient-2" x1="191.05" y1="709.18" x2="501.49" y2="709.18" gradientUnits="userSpaceOnUse"><stop offset="0" stop-color="#fff7f5"/><stop offset="0.16" stop-color="#f9eff3"/><stop offset="0.41" stop-color="#e7d8ed"/><stop offset="0.73" stop-color="#cbb4e4"/><stop offset="1" stop-color="#ae8edb"/></linearGradient><linearGradient id="linear-gradient-3" x1="514.04" y1="41.15" x2="674.02" y2="41.15" gradientTransform="matrix(0.78, 0.63, -0.63, 0.78, 336.76, -123.66)" gradientUnits="userSpaceOnUse"><stop offset="0" stop-color="#440064"/><stop offset="0.18" stop-color="#44016a"/><stop offset="0.43" stop-color="#45057c"/><stop offset="0.71" stop-color="#460a99"/><stop offset="1" stop-color="#4711bd"/></linearGradient><linearGradient id="linear-gradient-4" x1="617.54" y1="150.07" x2="781.3" y2="150.07" gradientTransform="translate(120.42 -21.09) rotate(12.12)" gradientUnits="userSpaceOnUse"><stop offset="0" stop-color="#cf00ff"/><stop offset="0.1" stop-color="#b700e6"/><stop offset="0.25" stop-color="#9a00c8"/><stop offset="0.41" stop-color="#8400b0"/><stop offset="0.57" stop-color="#7400a0"/><stop offset="0.76" stop-color="#6b0096"/><stop offset="0.99" stop-color="#680093"/></linearGradient><linearGradient id="linear-gradient-5" x1="-93.52" y1="878.46" x2="22.81" y2="992.2" gradientTransform="translate(-48.52 1150.77) rotate(-159.87)" gradientUnits="userSpaceOnUse"><stop offset="0" stop-color="#16c0ff"/><stop offset="1" stop-color="#440064"/></linearGradient><linearGradient id="linear-gradient-6" x1="237.01" y1="324.16" x2="406.39" y2="324.16" gradientUnits="userSpaceOnUse"><stop offset="0.01" stop-color="#1c67ff"/><stop offset="0.08" stop-color="#2579ff"/><stop offset="0.29" stop-color="#3ba4ff"/><stop offset="0.49" stop-color="#4cc6fe"/><stop offset="0.68" stop-color="#58defe"/><stop offset="0.85" stop-color="#5fedfe"/><stop offset="1" stop-color="#62f2fe"/></linearGradient><linearGradient id="linear-gradient-7" x1="-128.5" y1="1145.82" x2="-66.49" y2="1206.45" gradientTransform="translate(-406.86 850.77) rotate(-128.15)" xlink:href="#linear-gradient-5"/><linearGradient id="linear-gradient-8" x1="410.39" y1="100.9" x2="500.69" y2="100.9" gradientTransform="matrix(0.95, 0.3, -0.3, 0.95, 172.29, -11.03)" xlink:href="#linear-gradient-6"/><linearGradient id="linear-gradient-9" x1="-7.52" y1="305.9" x2="-217.26" y2="455.31" gradientTransform="matrix(-0.67, 0.74, -0.74, -0.67, 538.69, 903.15)" xlink:href="#linear-gradient-5"/><linearGradient id="linear-gradient-10" x1="253.23" y1="649.8" x2="402.85" y2="649.8" gradientUnits="userSpaceOnUse"><stop offset="0.01" stop-color="#1c67ff"/><stop offset="0.03" stop-color="#1f6dff"/><stop offset="0.26" stop-color="#379cff"/><stop offset="0.48" stop-color="#4ac1fe"/><stop offset="0.68" stop-color="#57dcfe"/><stop offset="0.86" stop-color="#5fecfe"/><stop offset="1" stop-color="#62f2fe"/></linearGradient><linearGradient id="linear-gradient-11" x1="22.12" y1="34.57" x2="-85.23" y2="111.04" gradientTransform="matrix(-0.85, 0.53, -0.53, -0.85, 521.19, 952.29)" xlink:href="#linear-gradient-3"/><linearGradient id="linear-gradient-12" x1="539.23" y1="888.75" x2="444.45" y2="956.27" gradientTransform="matrix(1, 0, 0, 1, 0, 0)" xlink:href="#linear-gradient-4"/><linearGradient id="linear-gradient-13" x1="708.93" y1="667.14" x2="842.4" y2="667.14" gradientTransform="translate(-9.58 -0.3) rotate(-0.29)" xlink:href="#linear-gradient-3"/><linearGradient id="linear-gradient-14" x1="659.57" y1="801.28" x2="804.75" y2="801.28" gradientTransform="translate(-136.06 53.78) rotate(-13.8)" xlink:href="#linear-gradient-4"/><linearGradient id="linear-gradient-15" x1="700.34" y1="633.56" x2="787.64" y2="633.56" gradientTransform="matrix(0.91, 0.42, -0.42, 0.91, 284.27, -3.38)" xlink:href="#linear-gradient-3"/><linearGradient id="linear-gradient-16" x1="546.26" y1="404.83" x2="613.44" y2="640.04" gradientUnits="userSpaceOnUse"><stop offset="0" stop-color="#4485d5"/><stop offset="0.17" stop-color="#4466bd"/><stop offset="0.43" stop-color="#443b9b"/><stop offset="0.66" stop-color="#441c83"/><stop offset="0.86" stop-color="#440974"/><stop offset="0.99" stop-color="#44026f"/></linearGradient><linearGradient id="linear-gradient-17" x1="477.96" y1="478.65" x2="631.28" y2="393.17" gradientUnits="userSpaceOnUse"><stop offset="0" stop-color="#440064"/><stop offset="0.01" stop-color="#61287c"/><stop offset="0.02" stop-color="#825597"/><stop offset="0.03" stop-color="#a07db0"/><stop offset="0.04" stop-color="#baa0c6"/><stop offset="0.06" stop-color="#cfbed7"/><stop offset="0.07" stop-color="#e1d6e6"/><stop offset="0.09" stop-color="#eee8f1"/><stop offset="0.11" stop-color="#f8f5f9"/><stop offset="0.14" stop-color="#fdfdfe"/><stop offset="0.19" stop-color="#fff"/><stop offset="0.28" stop-color="#ddd0e3"/><stop offset="0.38" stop-color="#b59ac1"/><stop offset="0.49" stop-color="#926ba5"/><stop offset="0.6" stop-color="#76448d"/><stop offset="0.7" stop-color="#60267b"/><stop offset="0.81" stop-color="#51116e"/><stop offset="0.91" stop-color="#470467"/><stop offset="1" stop-color="#440064"/></linearGradient><linearGradient id="linear-gradient-18" x1="518.15" y1="514.93" x2="526.96" y2="545.78" gradientUnits="userSpaceOnUse"><stop offset="0" stop-color="#680093"/><stop offset="0.4" stop-color="#cf00ff"/><stop offset="0.42" stop-color="#ca00fa"/><stop offset="0.6" stop-color="#a000ce"/><stop offset="0.76" stop-color="#8100ae"/><stop offset="0.9" stop-color="#6f009a"/><stop offset="0.99" stop-color="#680093"/></linearGradient><linearGradient id="linear-gradient-19" x1="546.82" y1="1024.37" x2="546.82" y2="52.13" gradientUnits="userSpaceOnUse"><stop offset="0" stop-color="#440064"/><stop offset="0.07" stop-color="#61287c"/><stop offset="0.16" stop-color="#865a9b"/><stop offset="0.26" stop-color="#a686b5"/><stop offset="0.37" stop-color="#c2abcc"/><stop offset="0.47" stop-color="#d8cadf"/><stop offset="0.58" stop-color="#e9e1ed"/><stop offset="0.7" stop-color="#f5f2f7"/><stop offset="0.83" stop-color="#fdfcfd"/><stop offset="1" stop-color="#fff"/></linearGradient><linearGradient id="linear-gradient-20" x1="559.06" y1="313.52" x2="677.05" y2="726.63" xlink:href="#linear-gradient-19"/><linearGradient id="linear-gradient-21" x1="598.1" y1="1072.39" x2="840.27" y2="421.75" gradientUnits="userSpaceOnUse"><stop offset="0" stop-color="#1c0067"/><stop offset="0.68" stop-color="#b9b1d0"/><stop offset="1" stop-color="#fff"/></linearGradient><radialGradient id="radial-gradient" cx="445.4" cy="551.62" r="136.39" gradientTransform="translate(920.41 25.28) rotate(80.98)" gradientUnits="userSpaceOnUse"><stop offset="0" stop-color="#fff"/><stop offset="0.23" stop-color="#fdfdfd"/><stop offset="0.37" stop-color="#f4f4f4"/><stop offset="0.48" stop-color="#e6e6e6"/><stop offset="0.58" stop-color="#d2d2d2"/><stop offset="0.67" stop-color="#b8b8b8"/><stop offset="0.75" stop-color="#989898"/><stop offset="0.83" stop-color="#727272"/><stop offset="0.9" stop-color="#464646"/><stop offset="0.97" stop-color="#161616"/><stop offset="1"/></radialGradient></defs><title>asteroid</title><g class="cls-1"><g id="Layer_1" data-name="Layer 1"><path class="cls-2" d="M955.26,330.12c0,2.88,0,5.92-.08,9-.39,22-3.19,47.86-9,76.22-16.76,83.86-92.2,450-134.13,486.33-33.82,29.38-100.38,107.86-229.29,120.8-10.52,1.09-21.59,1.72-33,1.79-11.3.24-23-.15-35.14-1.09A125.74,125.74,0,0,1,464,1008.33a92.71,92.71,0,0,1-11.07-6.55c-47.62-32-144.11-100.85-160.78-144.81C269.81,798.29,135.6,513.19,138.41,435s28-187.29,109-218.07,218-109,279.56-153.77a66.61,66.61,0,0,1,24.32-11c63.44-14.73,114.48,60.17,168.49,92.12C753,163.8,837,188,871.79,215.16c23.07,18.09,42.94,33.67,55,41.62a54.75,54.75,0,0,0,8.34,4.83C947.08,266.76,955,291.93,955.26,330.12Z" transform="translate(-138.36 -50.22)"/><path class="cls-3" d="M192,481.62c-6.42-28.09,20.82-52.11,47.76-41.88,70.57,26.81,195.87,122.55,197.75,148.92,2.8,39.13,8.39,271.14,27.95,313.07s55.91,86.66,22.37,78.27-81.07-78.27-137-114.61C300.78,832.84,233.22,661.83,192,481.62Z" transform="translate(-138.36 -50.22)"/><path class="cls-4" d="M469.71,1004.6c-47.57-32-144.07-100.91-160.78-144.8C286.57,801.1,152.39,516,155.19,437.71s27.95-187.28,109-218C341,190.56,467.86,118.83,533.32,73.32c6.43-7.86,12.52-15,18-21.19a66,66,0,0,0-24.32,11c-61.5,44.73-198.46,123-279.53,153.74s-106.22,139.77-109,218S269.79,798.31,292.16,857c16.71,43.88,113.21,112.82,160.78,144.8a128.24,128.24,0,0,0,58.88,21.09A128.26,128.26,0,0,1,469.71,1004.6Z" transform="translate(-138.36 -50.22)"/><path class="cls-5" d="M935.08,261.61c-.46-.2-1-.47-1.53-.75,9.74,24.85,11.27,75-1.27,137.72C915.51,482.44,840,848.62,798.11,885,758.74,919.07,675,1019.7,500.74,1006.46A128.27,128.27,0,0,1,439,985c-35.7-24-98.94-68.78-135.35-108.2,31.45,42.73,108.43,97.5,149.32,125a128.31,128.31,0,0,0,61.8,21.44c174.3,13.24,258-87.38,297.36-121.5C854,865.39,929.49,499.21,946.26,415.35S954.64,270,935.08,261.61Z" transform="translate(-138.36 -50.22)"/><ellipse class="cls-6" cx="774.55" cy="279.98" rx="89.47" ry="62.42" transform="translate(-181.61 132.14) rotate(-13.07)"/><path class="cls-7" d="M749.44,239c42.26-17.06,89.87-9.67,110.79,16.07a45.26,45.26,0,0,0-3.75-8.16c-18.18-30.31-69.59-40.07-114.84-21.8s-67.2,57.66-49,88a48.65,48.65,0,0,0,4.06,5.73C686.37,289.89,708.15,255.66,749.44,239Z" transform="translate(-138.36 -50.22)"/><path class="cls-8" d="M241.7,359.69c-21.64-35-4.41-84.89,38.49-111.41s95.22-19.62,116.86,15.39,4.41,84.9-38.49,111.41S263.34,394.7,241.7,359.69Z" transform="translate(-138.36 -50.22)"/><path class="cls-9" d="M349.17,359c-40.06,24.76-88.32,20.37-112.16-8.84a61.55,61.55,0,0,0,4.69,9.54c21.64,35,74,41.9,116.86,15.39s60.13-76.39,38.49-111.41a61.89,61.89,0,0,0-4.7-6.56C406,291.17,388.31,334.79,349.17,359Z" transform="translate(-138.36 -50.22)"/><ellipse class="cls-10" cx="576.55" cy="216.64" rx="48.68" ry="39.73" transform="translate(-173.71 96.21) rotate(-14.05)"/><path class="cls-11" d="M584,245.49c-24.35,6.09-48.16-4-55.54-22.63a33.68,33.68,0,0,0,.84,5.6c5.33,21.28,30.79,33.25,56.87,26.73s42.9-29.08,37.58-50.36a33.26,33.26,0,0,0-1.33-4.1C623.85,220.24,607.82,239.54,584,245.49Z" transform="translate(-138.36 -50.22)"/><ellipse class="cls-12" cx="326.83" cy="611.02" rx="75.23" ry="118.8" transform="translate(-208.05 -7.48) rotate(-6.76)"/><path class="cls-13" d="M398.34,583.42c-1-4.53-2.2-8.92-3.5-13.19C404.5,630,384.19,687.48,347,701.84c-36.68,14.16-76.83-18.62-93.76-74.26.59,3.68,1.27,7.36,2.1,11,14.22,63.54,57.76,102.69,97.25,87.44S412.56,647,398.34,583.42Z" transform="translate(-138.36 -50.22)"/><ellipse class="cls-14" cx="500.14" cy="896.14" rx="52.88" ry="61.78" transform="translate(-337.74 94.99) rotate(-13.8)"/><path class="cls-15" d="M552.77,890a71.68,71.68,0,0,0-5.37-18.41c4,32.83-15.19,61.74-43.65,65.08-23.43,2.75-45.95-12.68-56.46-36.42.08.7.11,1.39.22,2.1,5.08,33.69,32.77,58.23,61.83,54.82S557.85,923.65,552.77,890Z" transform="translate(-138.36 -50.22)"/><path class="cls-16" d="M819.76,587.56C843.83,610,840.81,662,813,703.63s-69.85,57.18-93.93,34.72-21-74.42,6.76-116.06S795.69,565.1,819.76,587.56Z" transform="translate(-138.36 -50.22)"/><path class="cls-17" d="M736.47,632.84c26-38.88,64.34-55,88.91-38.66a43.12,43.12,0,0,0-5.62-6.62c-24.07-22.46-66.12-6.91-93.92,34.73s-30.83,93.6-6.76,116.06a38.42,38.42,0,0,0,5,3.94C706.44,717.36,711.1,670.84,736.47,632.84Z" transform="translate(-138.36 -50.22)"/><path class="cls-18" d="M744.67,853.08c8,20-8.16,49.92-36.18,66.89s-57.23,14.51-65.27-5.47,8.17-49.93,36.18-66.89S736.64,833.1,744.67,853.08Z" transform="translate(-138.36 -50.22)"/><path class="cls-19" d="M750.47,447.24c10.16,6,13.12,24.44,6.61,41.17s-20,25.42-30.2,19.42-13.13-24.43-6.61-41.16S740.3,441.24,750.47,447.24Z" transform="translate(-138.36 -50.22)"/><path class="cls-19" d="M854.32,511.35c4.92,2.9,6.35,11.81,3.2,19.89s-9.69,12.29-14.6,9.39-6.35-11.81-3.2-19.9S849.41,508.44,854.32,511.35Z" transform="translate(-138.36 -50.22)"/><path class="cls-19" d="M605.78,343.46c1.1-5.61,9-9.93,17.69-9.66s14.82,5,13.73,10.63-9,9.92-17.69,9.65S604.69,349.06,605.78,343.46Z" transform="translate(-138.36 -50.22)"/><path class="cls-19" d="M365.8,785.31c7-1.65,16.13,5.22,20.33,15.35S388.06,820.34,381,822s-16.13-5.22-20.33-15.35S358.78,787,365.8,785.31Z" transform="translate(-138.36 -50.22)"/><g class="cls-20"><path class="cls-19" d="M586.32,114c-1.17,7.52-11.5,13.69-23.07,13.78s-20-5.92-18.84-13.44,11.5-13.69,23.07-13.79S587.48,106.46,586.32,114Z" transform="translate(-138.36 -50.22)"/></g><g class="cls-20"><path class="cls-19" d="M205.38,420.52c10.77-.42,22.14,12.26,25.4,28.32s-2.82,29.4-13.58,29.81-22.14-12.26-25.4-28.32S194.62,420.93,205.38,420.52Z" transform="translate(-138.36 -50.22)"/></g><g class="cls-20"><path class="cls-21" d="M554.73,717.07c5.3,3.13,6.84,12.72,3.44,21.43s-10.43,13.24-15.72,10.11-6.83-12.72-3.44-21.43S549.44,713.94,554.73,717.07Z" transform="translate(-138.36 -50.22)"/></g><path class="cls-22" d="M492.67,456.14c-12.83-13-18.36-32-11.57-49,7.3-18.25,23.36-35.18,58.44-29.57,69.88,11.18,106.22,75.48,100.63,114.61s-47.52,131.38-89.45,92.25C514.62,550.77,522,486,492.67,456.14Z" transform="translate(-138.36 -50.22)"/><path class="cls-23" d="M486.69,426.74c7.3-18.25,23.36-35.17,58.44-29.56a122.61,122.61,0,0,1,94.39,74.42c-6.48-37.92-41.37-84.61-100-94-35.08-5.61-51.14,11.32-58.44,29.57-4.93,12.33-3.3,25.67,2.84,37.05A41,41,0,0,1,486.69,426.74Z" transform="translate(-138.36 -50.22)"/><path class="cls-24" d="M517,510.49c2.47,9.42,4.93,19,7.91,28.41C522.33,529.17,519.9,519.54,517,510.49Z" transform="translate(-138.36 -50.22)"/><path class="cls-25" d="M955.2,339.15c-22-4.14-47.69-3-73.85,10.85C810.63,387.45,482.91,485.29,472,567.3c-9.5,71.34,4.08,334.27,110.86,455.25-10.56,1.06-21.58,1.67-33,1.79s-23-.23-35.11-1.12a128.37,128.37,0,0,1-61.78-21.41c-47.57-32-144.07-100.92-160.78-144.8-22.37-58.7-156.54-343.82-153.75-422.09s28-187.29,109-218,218-109,279.53-153.74a66,66,0,0,1,24.32-11C507.17,102.33,420.13,214.42,460,276.65c52.38,81.84,175.65,171,328.17,77.31,70.38-43.21,113.09-75.19,138.59-97.16a56.33,56.33,0,0,0,8.33,4.81C948.05,267.14,956.1,296,955.2,339.15Z" transform="translate(-138.36 -50.22)"/><path class="cls-26" d="M174.75,359.44s203.59,118.8,244.59,130S920.63,292.82,939.27,285.37s.47,2.33.47,2.33S472,515.05,464.53,533.68s-3.72,154.68-3.72,154.68-3.26-131.85-21.9-148.62S174.75,359.44,174.75,359.44Z" transform="translate(-138.36 -50.22)"/><path class="cls-27" d="M955.26,330.12c0,2.88,0,5.92-.08,9-.39,22-3.19,47.86-9,76.22-16.76,83.86-92.2,450-134.13,486.33-33.82,29.38-100.38,107.86-229.29,120.8-10.52,1.09-21.59,1.72-33,1.79-11.3.24-23-.15-35.14-1.09A125.74,125.74,0,0,1,464,1008.33a325.85,325.85,0,0,1,34.6-4.68c270.21-23.38,228.67-454.6,317-576.73C858.46,367.61,911.77,341.42,955.26,330.12Z" transform="translate(-138.36 -50.22)"/><circle class="cls-28" cx="445.4" cy="551.62" r="136.39" transform="translate(-307.56 854.85) rotate(-80.98)"/></g></g></svg>