<svg xmlns="http://www.w3.org/2000/svg" xmlns:xlink="http://www.w3.org/1999/xlink" viewBox="0 0 542.71 535.5"><defs><style>.cls-1{isolation:isolate;}.cls-2{fill:url(#linear-gradient);}.cls-3{fill:#fff;opacity:0.65;}.cls-12,.cls-13,.cls-14,.cls-15,.cls-16,.cls-17,.cls-3{mix-blend-mode:color-dodge;}.cls-4{fill:#87000d;}.cls-5{fill:url(#linear-gradient-2);}.cls-6{fill:#fcfe02;}.cls-7{fill:url(#linear-gradient-3);}.cls-8{fill:url(#linear-gradient-4);}.cls-9{fill:url(#linear-gradient-5);}.cls-10{opacity:0.35;mix-blend-mode:color-burn;fill:url(#linear-gradient-6);}.cls-11{fill:#fff7f5;mix-blend-mode:overlay;}.cls-11,.cls-12,.cls-14,.cls-15,.cls-16,.cls-17{opacity:0.5;}.cls-12{fill:url(#radial-gradient);}.cls-13{opacity:0.25;fill:url(#radial-gradient-2);}.cls-14{fill:url(#radial-gradient-3);}.cls-15{fill:url(#radial-gradient-4);}.cls-16{fill:url(#radial-gradient-5);}.cls-17{fill:url(#radial-gradient-6);}</style><linearGradient id="linear-gradient" x1="273.27" y1="442.45" x2="775.35" y2="600.06" gradientTransform="translate(-60.4 98.53) rotate(-7.54)" gradientUnits="userSpaceOnUse"><stop offset="0" stop-color="#ff5f06"/><stop offset="0.02" stop-color="#fd5c0a"/><stop offset="0.34" stop-color="#de353c"/><stop offset="0.62" stop-color="#c81861"/><stop offset="0.85" stop-color="#bb0678"/><stop offset="0.99" stop-color="#b60080"/></linearGradient><linearGradient id="linear-gradient-2" x1="338.16" y1="641.88" x2="808.06" y2="641.88" gradientTransform="translate(-60.4 98.53) rotate(-7.54)" gradientUnits="userSpaceOnUse"><stop offset="0.01" stop-color="#ffbb2f"/><stop offset="0.1" stop-color="#ffc626"/><stop offset="0.33" stop-color="#ffdd13"/><stop offset="0.48" stop-color="#ffe50c"/><stop offset="0.55" stop-color="#ffc00c"/><stop offset="0.64" stop-color="#ff9c0c"/><stop offset="0.73" stop-color="#ff800c"/><stop offset="0.81" stop-color="#ff6c0c"/><stop offset="0.9" stop-color="#ff600c"/><stop offset="0.98" stop-color="#ff5c0c"/></linearGradient><linearGradient id="linear-gradient-3" x1="290.71" y1="497.07" x2="782.55" y2="497.07" xlink:href="#linear-gradient-2"/><linearGradient id="linear-gradient-4" x1="358.18" y1="315.15" x2="613.85" y2="315.15" gradientTransform="translate(-60.4 98.53) rotate(-7.54)" gradientUnits="userSpaceOnUse"><stop offset="0.01" stop-color="#ffbb2f"/><stop offset="0.1" stop-color="#ffc626"/><stop offset="0.33" stop-color="#ffdd13"/><stop offset="0.48" stop-color="#ffe50c"/><stop offset="0.52" stop-color="#ffdf11"/><stop offset="0.68" stop-color="#ffcb22"/><stop offset="0.84" stop-color="#ffbf2c"/><stop offset="1" stop-color="#ffbb2f"/></linearGradient><linearGradient id="linear-gradient-5" x1="270.06" y1="420.11" x2="682.53" y2="420.11" xlink:href="#linear-gradient-2"/><linearGradient id="linear-gradient-6" x1="539.44" y1="791.32" x2="605.93" y2="289.08" gradientTransform="translate(-60.4 98.53) rotate(-7.54)" gradientUnits="userSpaceOnUse"><stop offset="0" stop-color="#1c0067"/><stop offset="0.1" stop-color="#1c007f"/><stop offset="0.29" stop-color="#1c00a5"/><stop offset="0.47" stop-color="#1c00c2"/><stop offset="0.65" stop-color="#1c00d7"/><stop offset="0.83" stop-color="#1c00e4"/><stop offset="1" stop-color="#1c00e8"/></linearGradient><radialGradient id="radial-gradient" cx="356.55" cy="473.42" r="78.38" gradientTransform="matrix(0.79, 0.61, -0.61, 0.79, 360.12, -71.58)" gradientUnits="userSpaceOnUse"><stop offset="0" stop-color="#fff"/><stop offset="0.12" stop-color="#e8e8e8"/><stop offset="0.37" stop-color="#acacac"/><stop offset="0.72" stop-color="#4e4e4e"/><stop offset="1"/></radialGradient><radialGradient id="radial-gradient-2" cx="448.79" cy="469.55" r="160.03" gradientTransform="translate(-332.97 -178.24) rotate(-7.54)" gradientUnits="userSpaceOnUse"><stop offset="0" stop-color="#fff"/><stop offset="0.23" stop-color="#fdfdfd"/><stop offset="0.37" stop-color="#f4f4f4"/><stop offset="0.48" stop-color="#e6e6e6"/><stop offset="0.58" stop-color="#d2d2d2"/><stop offset="0.67" stop-color="#b8b8b8"/><stop offset="0.75" stop-color="#989898"/><stop offset="0.83" stop-color="#727272"/><stop offset="0.9" stop-color="#464646"/><stop offset="0.97" stop-color="#161616"/><stop offset="1"/></radialGradient><radialGradient id="radial-gradient-3" cx="615.73" cy="521.44" r="78.38" gradientTransform="matrix(0.79, 0.61, -0.61, 0.79, 446.85, -253.74)" xlink:href="#radial-gradient"/><radialGradient id="radial-gradient-4" cx="390.99" cy="753.5" r="0" gradientTransform="translate(-60.4 98.53) rotate(-7.54)" xlink:href="#radial-gradient"/><radialGradient id="radial-gradient-5" cx="393.05" cy="694.51" r="31.99" gradientTransform="translate(-60.4 98.53) rotate(-7.54)" xlink:href="#radial-gradient"/><radialGradient id="radial-gradient-6" cx="560.69" cy="322.69" r="57.97" gradientTransform="matrix(0.7, 0.71, -0.71, 0.7, 373.01, -280.72)" xlink:href="#radial-gradient"/></defs><title>planet</title><g class="cls-1"><g id="Layer_1" data-name="Layer 1"><path class="cls-2" d="M804,514.68c.28,2.1.51,4.17.75,6.23.62,5.55,1,11.09,1.26,16.57.07.85.11,1.74.15,2.59a263.78,263.78,0,0,1-5.35,62.84c-.76,3.67-1.6,7.31-2.52,10.89C772.63,715.06,687.59,795.44,577.75,810c-2.29.3-4.58.57-6.88.79-1.27.13-2.53.26-3.8.35a.86.86,0,0,1-.42.06A260.43,260.43,0,0,1,446,793.64c-2.49-1-4.95-1.95-7.39-3a262.23,262.23,0,0,1-63.15-38.82c-.57-.46-1.14-.93-1.71-1.44-2.35-1.94-4.6-3.93-6.84-5.93-1.46-1.32-2.92-2.68-4.34-4-2.42-2.29-4.76-4.64-7.08-7a260.42,260.42,0,0,1-30.31-36.91c-1.39-2-2.71-4.06-4-6.14-.19-.32-.39-.61-.59-.93-1.86-3-3.7-6-5.46-9-1.25-2.12-2.43-4.29-3.62-6.51-.61-1.12-1.2-2.28-1.77-3.41s-1-1.92-1.51-2.91a255.44,255.44,0,0,1-16.46-41c-1.12-3.77-2.2-7.55-3.18-11.42q-1.79-6.83-3.19-13.79-1.78-8.68-2.94-17.56a262.2,262.2,0,0,1,18.41-136.91c2.79-6.54,5.79-12.92,9.08-19.18.18-.34.33-.71.52-1A261.27,261.27,0,0,1,332,392.53c1.71-2.37,3.5-4.7,5.33-7,.6-.74,1.16-1.47,1.77-2.18A253.69,253.69,0,0,1,356.46,364a261.9,261.9,0,0,1,152.25-75.53c7.06-.93,14.07-1.59,21.06-1.93.77,0,1.5-.08,2.28-.07A257.22,257.22,0,0,1,582,289c3,.42,5.91.92,8.82,1.47A258,258,0,0,1,638.4,304c.78.29,1.52.58,2.26.91s1.23.53,1.86.78c2.58,1.07,5.16,2.09,7.72,3.23,2,.9,4,1.83,6.08,2.81,3.36,1.61,6.68,3.27,10,5a263.45,263.45,0,0,1,51.21,35.43c2,1.76,4,3.56,5.88,5.4a265.27,265.27,0,0,1,28.13,30.91c0,.07.14.18.18.25,4.72,6.15,9.11,12.55,13.27,19.12-.12-.2-.23-.46-.38-.71,1.17,1.79,2.35,3.65,3.44,5.49s2.28,3.69,3.34,5.57c1.17,2.06,2.33,4.08,3.42,6.19a257.66,257.66,0,0,1,22.66,57.35A260.94,260.94,0,0,1,804,514.68Z" transform="translate(-272.57 -276.77)"/><path class="cls-3" d="M804,514.68c.28,2.1.51,4.17.75,6.23.62,5.55,1,11.09,1.26,16.57.07.85.11,1.74.15,2.59a263.78,263.78,0,0,1-5.35,62.84c-.76,3.67-1.6,7.31-2.52,10.89C772.63,715.06,687.59,795.44,577.75,810c-2.29.3-4.58.57-6.88.79-1.27.13-2.53.26-3.8.35a.86.86,0,0,1-.42.06c103-18.06,183.7-91.31,215.46-184.95,1.52-4.39,2.87-8.8,4.14-13.28.72-2.54,1.43-5.08,2.06-7.61q1.47-5.67,2.67-11.54a278.29,278.29,0,0,0,4.66-31.41c.09-.75.15-1.46.21-2.2.33-4.24.58-8.51.72-12.76.28-6.68.25-13.35,0-20.08s-.7-13.53-1.45-20.31c-.25-2.22-.5-4.4-.79-6.61q-1.05-7.85-2.52-15.51a273,273,0,0,0-18.56-59.83c-1-2.21-1.95-4.4-3-6.6-1.68-3.58-3.47-7.11-5.29-10.6-.15-.25-.26-.51-.41-.76,1.17,1.79,2.35,3.65,3.44,5.49s2.28,3.69,3.34,5.57c1.17,2.06,2.33,4.08,3.42,6.19a257.66,257.66,0,0,1,22.66,57.35A260.94,260.94,0,0,1,804,514.68Z" transform="translate(-272.57 -276.77)"/><path class="cls-4" d="M590.79,290.42C592.86,319,590,361.67,553,380.19,499.44,407.05,385.17,452,332,392.53c1.71-2.37,3.5-4.7,5.33-7,.6-.74,1.16-1.47,1.77-2.18a17.69,17.69,0,0,0,10.23,4.82c35.78,5.4,138.15,9.6,165.83-20.67s46.69-40.39,24.34-64a27.79,27.79,0,0,1-7.42-17A257.22,257.22,0,0,1,582,289C584.94,289.37,587.88,289.87,590.79,290.42Z" transform="translate(-272.57 -276.77)"/><path class="cls-4" d="M666.31,316.73c.6,5.13,1.32,12.33,1.53,21,1.16,44.24-10.46,125.46-113,148.15C441.36,511,439,512.83,423.13,524.64S366.08,526.37,345,536c-14.65,6.68-44.93,36.63-56.47,79.13q-1.79-6.83-3.19-13.79-1.78-8.68-2.94-17.56a262.2,262.2,0,0,1,18.41-136.91c1.26-2.54,2.52-5,3.83-7.5-4.65,29.47-4.16,67.73,27.66,74,17.43,3.48,31.36,5.17,42.69,5.38a105.25,105.25,0,0,0,11.73-.27c15.74-1.38,25.29-6.38,32.78-13.74,13.75-13.47,66.28-12.66,101-22.1s109.42-46.17,118-69.63c6.7-18.32,19.37-57.55,13.09-97.11-.35-2.32-.78-4.67-1.28-7,2,.9,4,1.83,6.08,2.81C659.68,313.3,663,315,666.31,316.73Z" transform="translate(-272.57 -276.77)"/><path class="cls-4" d="M774.83,424.57c-13,3.74-30.68,18.78-50.48,62.83-41.5,92.14-17.69,80.21-56.6,110.68s-104.39,74.16-147.93,77c-36.77,2.42-147.93.79-194.64,21.34-1.39-2-2.71-4.06-4-6.14-3.42-5.37-6.67-10.84-9.67-16.47,10.18-5.27,24.81-9.11,45.87-9.33,63.37-.59,134.22,3.67,172.3-11.12s139.13-62.22,152.43-102c13.1-39.21,54.87-92.74,39.88-193.35a273.24,273.24,0,0,1,29.47,30.51l.19.24a267.77,267.77,0,0,1,19.8,29.57C772.57,420.44,773.73,422.46,774.83,424.57Z" transform="translate(-272.57 -276.77)"/><path class="cls-4" d="M806.12,540.11a261.57,261.57,0,0,1-5.31,62.8c-.76,3.67-1.6,7.31-2.52,10.89-15,10.18-29,22.67-35.22,36.7-16.44,37.13-55.8,91.85-140.2,106.91C548,770.78,487.21,751.72,446,793.64c-2.49-1-4.95-1.95-7.39-3a262.23,262.23,0,0,1-63.15-38.82c25,4.5,55.74,8.35,83.51,6.93,59.79-3.06,109-12.49,149.23-31.41s69.41-25.69,77.39-60.73,29.64-62.17,71.43-76.44C784.78,580.68,799.77,562.19,806.12,540.11Z" transform="translate(-272.57 -276.77)"/><path class="cls-5" d="M804.75,520.91c11.21,21.8,18.12,52-3.94,82-17.4,10.88-34.71,25-41.83,41-16.44,37.12-55.8,91.84-140.21,106.9-76.89,13.72-138.94-6.73-180.16,39.77-40.79,3.56-75.6-32.12-71.7-46.19,25.72,4.83,58.54,9.22,88,7.73,59.78-3.06,109-12.49,149.23-31.4s69.41-25.7,77.39-60.73,29.63-62.17,71.43-76.44C785.85,572.35,800.82,548.42,804.75,520.91Z" transform="translate(-272.57 -276.77)"/><path class="cls-6" d="M370.53,749.77c25.73,4.82,58.54,9.22,88,7.73,59.78-3.06,109-12.49,149.23-31.41s69.41-25.69,77.39-60.73,29.63-62.17,71.43-76.44c32.21-11,47.21-34.14,51.52-60.91-1.05-2.44-2.15-4.82-3.32-7.1-3.93,27.51-18.9,51.44-51.82,62.67C711.13,597.85,689.48,625,681.5,660s-37.18,41.81-77.39,60.73-89.45,28.34-149.23,31.4c-29.43,1.49-62.25-2.9-88-7.73-1.2,4.34,1.29,10.74,6.49,17.4C370.74,757.18,369.65,752.92,370.53,749.77Z" transform="translate(-272.57 -276.77)"/><path class="cls-7" d="M621.56,595.57a47.08,47.08,0,0,1-4.38,4.81A43.21,43.21,0,0,0,621.56,595.57ZM737.15,363.5a119.13,119.13,0,0,0-15.39-9.18c-1.37-.71-2.79-1.42-4.24-2.16,6.68,44.94,2.06,80.42-6.25,109.44a339.13,339.13,0,0,1-17.49,46.24,27.08,27.08,0,0,1-1.26,2.53,43,43,0,0,1-45.75,22.25c-17.82-3.19-39-6.83-56.58-9.44-13-1.89-23.92-3.24-30.16-3.38-11.1-.28-22,6.49-32.85,14.06-13.22,9.28-26.24,19.78-39,20-23.23.52-45.14,50-52.8,70.45-4.68,12.5-19.8,23-30.81,29.24a31.59,31.59,0,0,1-15.85,4c-11.31-.06-22.62-.11-33.71,0-16.83.17-29.55,2.67-39.15,6.38a10.68,10.68,0,0,0-6.52,12c1.31,6.08,3.55,9.55,7.62,12.12a7.22,7.22,0,0,0,1.29.61,7.13,7.13,0,0,0,2.32.58,9,9,0,0,0,4.12-.62C372,669,480.44,670.64,516.58,668.26c43.32-2.82,108.42-46.39,147.11-76.75,34.41-27,19.53-20.61,44.76-83.44,1-2.54,2.15-5.21,3.32-8.05,2.39-5.75,5.09-12,8.18-18.87,19.76-44.09,37.39-59,50.35-62.66.33-.12.67-.2,1-.29C760.17,386.55,749.91,372.77,737.15,363.5ZM446.93,613.76a12.75,12.75,0,0,1,.21-1.62c.76-4.8,3-9.6,5.93-14.18.54-.85,1.09-1.7,1.68-2.56s1.37-1.93,2.1-2.88c.49-.68,1-1.33,1.53-2l.66-.87c6.26-7.86,13.07-14.78,15.71-19.75,5.2-9.73,22.56-5.59,37-13.94,12.87-7.49,30.52-17.63,43.28-27.4,1.55-1.18,3-2.38,4.43-3.54a6.22,6.22,0,0,1,2.66-1.25c4.13-1.12,11.16-.77,19.92.51,4.32.67,9.06,1.56,14,2.61a6.8,6.8,0,0,0,.84.2A42.15,42.15,0,0,1,614,535.29a13.29,13.29,0,0,1,1.48,1.2,49.52,49.52,0,0,1,3.57,3.53,10.26,10.26,0,0,1,1,1.18c.45.53.88,1.09,1.3,1.62a13.81,13.81,0,0,1,1.19,1.7,10,10,0,0,1,1.13,1.76c.38.57.74,1.18,1,1.76a10.15,10.15,0,0,1,.94,1.86,29.38,29.38,0,0,1,1.49,3.29c.19.56.42,1.11.6,1.63a10,10,0,0,1,.47,1.49,23.87,23.87,0,0,1,.86,3.27,13,13,0,0,1,.43,2,43.11,43.11,0,0,1-.11,16.21,35.91,35.91,0,0,1-.92,3.92,41.44,41.44,0,0,1-2.12,5.72,42.64,42.64,0,0,1-4.86,8.1,47.08,47.08,0,0,1-4.38,4.81,44.51,44.51,0,0,1-8.3,6.19,644.7,644.7,0,0,1-82.55,40c-11.92,4.65-27.13,7.4-44.28,9a22.06,22.06,0,0,1-2.31.11,16.87,16.87,0,0,1-2.49,0c-.78,0-1.57-.1-2.35-.19a28.3,28.3,0,0,1-6.66-1.6,24.49,24.49,0,0,1-4-1.69,34.19,34.19,0,0,1-17.63-36.34,13.37,13.37,0,0,0,.27-2.06A0,0,0,0,0,446.93,613.76Z" transform="translate(-272.57 -276.77)"/><path class="cls-6" d="M487.73,659.37c17.16-1.61,32.35-4.37,44.28-9a640.62,640.62,0,0,0,82.56-40c30-17.51,27.08-59.73-.52-75.05,22.19,17.6,22.69,55-5.16,71.27a640.62,640.62,0,0,1-82.56,40c-11.93,4.64-27.11,7.4-44.28,9a32,32,0,0,1-17.92-3.48A32,32,0,0,0,487.73,659.37Z" transform="translate(-272.57 -276.77)"/><path class="cls-6" d="M723.4,357.56c.13.72.22,1.41.31,2.09,7,51.15-.71,89.92-11.54,120.75-3.67,10.46-7.72,20.05-11.64,28.88-.36.78-.68,1.56-1,2.35a38.71,38.71,0,0,1-2.3,4.38,43.27,43.27,0,0,1-44.75,20.41c-17.46-3.13-38.21-6.71-55.56-9.31a6.8,6.8,0,0,1-.84-.2c-4.95-1-9.69-1.94-14-2.61-8.79-1.28-15.82-1.63-19.95-.51-6.12.66-12.22,3.25-18.24,6.77-17,9.83-33.7,26.75-50,27.12-12.7.29-25,15.2-34.83,32l-.66.87c-.54.65-1,1.3-1.53,2-.73,1-1.42,1.9-2.1,2.88s-1.14,1.71-1.68,2.56c-2.93,4.58-5.17,9.38-5.93,14.18-.09.51-.17,1.07-.22,1.58-2.41,5.56-4.4,10.48-5.86,14.37-4.71,12.54-19.83,23-30.85,29.24a31.52,31.52,0,0,1-15.84,4.08c-11.31,0-22.62-.11-33.71,0-16.84.13-29.55,2.67-39.16,6.35a10.71,10.71,0,0,0-6.52,12c0,.19.09.37.11.52a18.8,18.8,0,0,0,4.15,8.78,8.51,8.51,0,0,1-2.3-.94c-4.07-2.57-6.31-6-7.62-12.12a10.68,10.68,0,0,1,6.52-12c9.6-3.71,22.32-6.21,39.15-6.38,11.09-.11,22.4-.06,33.71,0a31.59,31.59,0,0,0,15.85-4c11-6.27,26.13-16.74,30.81-29.24,7.66-20.43,29.57-69.93,52.8-70.45,12.78-.25,25.8-10.75,39-20,10.8-7.57,21.75-14.34,32.85-14.06,6.24.14,17.21,1.49,30.16,3.38,17.58,2.61,38.76,6.25,56.58,9.44a43,43,0,0,0,45.75-22.25,27.08,27.08,0,0,0,1.26-2.53,339.13,339.13,0,0,0,17.49-46.24c8.31-29,12.93-64.5,6.25-109.44,1.45.74,2.87,1.45,4.24,2.16A119.64,119.64,0,0,1,737,363.37c-4.26-2.58-8.84-4.92-13.8-7.41C723.26,356.49,723.36,357,723.4,357.56Z" transform="translate(-272.57 -276.77)"/><path class="cls-8" d="M564.18,279.22c-6.93-1-10.32-1.63-19.16-2.4-6.34-.55-8.94,3.35-12.38,6.95a17,17,0,0,0-4.19,7.33c-2.42,9.2-2.12,18.58,4.89,25.21,18.87,17.89,2.45,25.88-21.61,49.46S400,387.35,369.44,383.63c-9.75-1.18-13.05-7.48-13.05-15.53a9.64,9.64,0,0,0,.28-4.41c-1.44-4-16.1,5.32-17.84,12.35a17.33,17.33,0,0,0,4.42,16.17c45,46.64,154.08,4.36,200.78-17.13,41.33-19,40.2-67.12,38.47-83.71a4.89,4.89,0,0,0,1.33-3.1C584.06,279,571.11,280.24,564.18,279.22Z" transform="translate(-272.57 -276.77)"/><path class="cls-6" d="M340.24,373c1.43,6.23,5.55,10.78,14.12,11.82,34.53,4.2,133.47,6.44,160.63-20.17s45.7-35.64,24.4-55.84c-7.23-6.82-8.1-16.25-6.13-25.73-.2.22-.4.44-.62.66a17,17,0,0,0-4.19,7.33c-2.42,9.2-2.12,18.58,4.89,25.21,18.87,17.89,2.45,25.88-21.61,49.46S400,387.35,369.44,383.63c-9.75-1.18-13.05-7.48-13.05-15.53a9.64,9.64,0,0,0,.28-4.41C355.43,360.28,344.39,366.69,340.24,373Z" transform="translate(-272.57 -276.77)"/><path class="cls-9" d="M656.11,321.54a34.06,34.06,0,0,1,.21-9.85c-6.52-7.26-10.3-6.21-14.9-6.92a1.21,1.21,0,0,0-.76.1,1.72,1.72,0,0,0-1.15,2.21c15,44.49,2.28,75.88-5.47,97.1a29.84,29.84,0,0,1-5.16,8.53,19.49,19.49,0,0,1-16.26,7.12c-17.64-1-46.08-2.83-56.81-5.29-16-3.7-67,.13-75.14,26.45s-59.17,22.4-76.91,27.66c-4.86,1.42-6.43,4.54-6.17,8.27,1.09,16.13-11.15,29.9-27.25,28.54a293.84,293.84,0,0,1-32.25-4.82c-29.19-5.77-32-38.4-28.69-66.53a25.51,25.51,0,0,0,.62-4.7c.15-1,.26-1.9.41-2.81-.19.33-.34.7-.52,1-.2-.91-.66-1.47-1.52-1.2-3.3.9-21.5,28.25-26.78,43.51s-19.25,99,3.75,131.34c8.84-48.24,49.57-70.84,65.43-78.06,6.55-3,15.11-4.06,24.22-4.49,3.86-.2,7.77-.25,11.73-.27,16.64-.18,33.32,0,42.16-6.55,15.91-11.82,19-10.29,131.75-38.8s100.85-118.2,96.48-143.83C656.62,326.32,656.29,323.77,656.11,321.54ZM411.36,478.83c.82-3.73,6.84-5.22,9.82-6.16,12.17-3.67,25.15-4.18,37.59-6.45,19-3.48,41.35-10.33,46.39-23.62s30.29-20.51,41.86-21.07a.62.62,0,0,1,.27,0c21.65-.73,28.23,29.27,8.35,37.81a232.32,232.32,0,0,1-29.4,10.57c-17.69,4.82-36.11,5.86-54.23,8.3a190.77,190.77,0,0,0-38.95,9.7c-5.37,2-10.17,5.58-15.65,2.31C413.7,488,410.36,483.35,411.36,478.83Z" transform="translate(-272.57 -276.77)"/><path class="cls-6" d="M418.73,496.65c5.61,3.37,10.5-.35,16-2.35a191.67,191.67,0,0,1,39.79-10c18.51-2.5,37.33-3.54,55.42-8.5A236.61,236.61,0,0,0,560,465c15.78-6.8,15.19-26.94,3.83-35.32,6.48,9.35,4.87,24.12-8.18,29.7a233.26,233.26,0,0,1-29.38,10.58c-17.7,4.82-36.12,5.85-54.23,8.3a189.93,189.93,0,0,0-38.93,9.7c-5.4,2-10.19,5.56-15.67,2.31a13.93,13.93,0,0,1-4.91-5.08C411.66,489.71,415,494.41,418.73,496.65Z" transform="translate(-272.57 -276.77)"/><path class="cls-6" d="M307.17,430.6c.9-.25,1.36.32,1.57,1.28.19-.36.35-.73.54-1.09-.15.95-.27,1.93-.41,2.89a28.45,28.45,0,0,1-.62,4.87c-3.34,29-.42,62.74,29.42,68.75a302,302,0,0,0,33,5c16.47,1.44,28.94-12.76,27.8-29.42-.26-3.88,1.35-7.08,6.3-8.56,5.4-1.61,13.81-2.37,23.18-3.37,8.35-1.81,17-2.61,25.42-3.87,14.08-3.31,26.32-9.2,30-21.21,8.31-27.18,60.38-31.06,76.76-27.22,11,2.58,40,4.55,58.09,5.57a19.88,19.88,0,0,0,16.62-7.33,31.53,31.53,0,0,0,5.25-8.82c7.88-21.9,20.85-54.32,5.48-100.28a1.79,1.79,0,0,1,1.35-2.35c-1.84-.39-3.59-.42-5.45-.72a1.76,1.76,0,0,0-1.89,2.34c15,44.48,2.24,75.88-5.5,97.09a30.61,30.61,0,0,1-5.15,8.55,19.61,19.61,0,0,1-16.27,7.12c-17.65-1-46.09-2.83-56.81-5.31-16-3.7-67,.13-75.14,26.45s-59.17,22.4-76.91,27.66c-4.85,1.43-6.43,4.54-6.18,8.29,1.09,16.12-11.13,29.9-27.24,28.52a300.91,300.91,0,0,1-32.25-4.82c-29.18-5.79-32-38.42-28.68-66.52a28.77,28.77,0,0,0,.62-4.72c.13-.93.25-1.88.4-2.8-.19.35-.35.71-.53,1-.21-.92-.66-1.47-1.53-1.22-3.28.91-21.51,28.24-26.77,43.5-.37,1.08-.79,2.54-1.23,4.26C286.25,458.24,303.91,431.52,307.17,430.6Z" transform="translate(-272.57 -276.77)"/><path class="cls-10" d="M804,514.68c.28,2.1.51,4.17.75,6.23.62,5.55,1,11.09,1.26,16.57.07.85.11,1.74.15,2.59a263.78,263.78,0,0,1-5.35,62.84c-.76,3.67-1.6,7.31-2.52,10.89C772.63,715.06,687.59,795.44,577.75,810c-2.29.3-4.58.57-6.88.79-1.27.13-2.53.26-3.8.35a.86.86,0,0,1-.42.06A260.43,260.43,0,0,1,446,793.64c-2.49-1-4.95-1.95-7.39-3a262.23,262.23,0,0,1-63.15-38.82c-.57-.46-1.14-.93-1.71-1.44-2.35-1.94-4.6-3.93-6.84-5.93-1.46-1.32-2.92-2.68-4.34-4-4.31-4.08-8.45-8.35-12.44-12.68.62.23,1.2.5,1.81.73a261.51,261.51,0,0,0,131.75,16.35c109.83-14.54,194.87-94.92,220.53-196.18q1.39-5.37,2.52-10.9c1-4.79,1.88-9.6,2.55-14.47.83-5.16,1.43-10.36,1.9-15.59.25-2.52.42-5.06.58-7.61q.59-9.75.4-19.62a10.39,10.39,0,0,0,0-1.47c0-1.33,0-2.68-.07-4-.16-4.45-.44-8.88-.79-13.3-.18-2-.37-4-.59-5.9s-.47-4.13-.74-6.23a261,261,0,0,0-29.2-90.3c-1.1-2.11-2.26-4.13-3.42-6.19q-4.47-7.8-9.48-15.29c-3.25-4.85-6.67-9.56-10.19-14.18l-.19-.25c-.46-.56-.89-1.16-1.35-1.72-1.5-1.9-3-3.79-4.59-5.65-2.91-3.49-5.93-6.9-9-10.26,2.59,1.09,5.17,2.11,7.73,3.25,2,.9,4,1.83,6.08,2.81,3.36,1.61,6.68,3.27,10,5a263.45,263.45,0,0,1,51.21,35.43c2,1.76,4,3.56,5.88,5.4a265.27,265.27,0,0,1,28.13,30.91c0,.07.14.18.18.25,4.72,6.15,9.11,12.55,13.27,19.12-.12-.2-.23-.46-.38-.71,1.17,1.79,2.35,3.65,3.44,5.49s2.28,3.69,3.34,5.57c1.17,2.06,2.33,4.08,3.42,6.19a257.66,257.66,0,0,1,22.66,57.35A260.94,260.94,0,0,1,804,514.68Z" transform="translate(-272.57 -276.77)"/><path class="cls-11" d="M797.46,481.73c-1.79,1.13-3.71,2.2-5.63,3.19-19.9,10.48-46,17-76,21.94-1.51.28-3.07.52-4.67.77-.91.16-1.82.32-2.74.44-2.58.42-5.25.81-7.92,1.21l-.34,0c-2.51.37-5.07.71-7.67,1.05-31.68,4.39-66.6,7.85-102.33,12.81-2.71.36-5.42.76-8.13,1.12-9,1.31-18,2.73-27,4.28-3.72.65-7.44,1.29-11.15,2-5.57,1.05-11.14,2.13-16.69,3.3a525.73,525.73,0,0,0-58.37,15.49c-109.4,36.31-105.2,96.8-177.08,77.15-1.12-3.77-2.2-7.55-3.18-11.42q-1.79-6.83-3.19-13.79c-23-32.37-9-116.09-3.75-131.34s23.48-42.61,26.78-43.51c.86-.27,1.32.29,1.52,1.2.18-.34.33-.71.52-1A261.27,261.27,0,0,1,332,392.53c1.71-2.37,3.5-4.7,5.33-7,.6-.74,1.16-1.47,1.77-2.18A253.69,253.69,0,0,1,356.46,364a261.9,261.9,0,0,1,152.25-75.53c7.06-.93,14.07-1.59,21.06-1.93.77,0,1.5-.08,2.28-.07A257.22,257.22,0,0,1,582,289c3,.42,5.91.92,8.82,1.47A258,258,0,0,1,638.4,304c.78.29,1.52.58,2.26.91a1.21,1.21,0,0,1,.76-.1c4.6.71,8.38-.34,14.9,6.92,3.36,1.61,6.68,3.27,10,5a263.45,263.45,0,0,1,51.21,35.43c1.45.74,2.87,1.45,4.24,2.16A119.64,119.64,0,0,1,737,363.37c12.93,9.4,23.19,23.18,34.4,54.82,1.17,2.06,2.33,4.08,3.42,6.19A257.66,257.66,0,0,1,797.46,481.73Z" transform="translate(-272.57 -276.77)"/><circle class="cls-12" cx="355.2" cy="521.09" r="78.39" transform="translate(-537.01 127.02) rotate(-45)"/><circle class="cls-13" cx="173.56" cy="228.4" r="160.03"/><circle class="cls-14" cx="618.45" cy="534.7" r="78.39" transform="translate(-469.52 317.15) rotate(-45)"/><path class="cls-15" d="M426.09,794.25" transform="translate(-272.57 -276.77)"/><path class="cls-16" d="M383.52,761.63A40.06,40.06,0,0,1,462.29,747" transform="translate(-272.57 -276.77)"/><circle class="cls-17" cx="537.8" cy="344.88" r="57.97" transform="translate(-334.4 288.6) rotate(-52.86)"/></g></g></svg>