<svg xmlns="http://www.w3.org/2000/svg" xmlns:xlink="http://www.w3.org/1999/xlink" viewBox="0 0 843.03 1018.37"><defs><style>.cls-1{isolation:isolate;}.cls-2{mix-blend-mode:color-dodge;fill:url(#radial-gradient);}.cls-3{fill:url(#linear-gradient);}.cls-4{fill:#e1ffff;}.cls-19,.cls-21,.cls-4{mix-blend-mode:overlay;}.cls-5{fill:url(#linear-gradient-2);}.cls-6{fill:#9185e7;}.cls-21,.cls-6{opacity:0.5;}.cls-11,.cls-17,.cls-22,.cls-24,.cls-25,.cls-6{mix-blend-mode:multiply;}.cls-7{fill:url(#linear-gradient-3);}.cls-8{fill:#ffc82c;}.cls-9{fill:url(#linear-gradient-4);}.cls-10{fill:url(#radial-gradient-2);}.cls-12{fill:url(#linear-gradient-5);}.cls-13{fill:url(#linear-gradient-6);}.cls-14{fill:url(#linear-gradient-7);}.cls-15{fill:url(#linear-gradient-8);}.cls-16{fill:url(#linear-gradient-9);}.cls-17{fill:url(#linear-gradient-10);}.cls-18{fill:url(#linear-gradient-11);}.cls-19,.cls-21,.cls-23{fill:#fff;}.cls-19{opacity:0.25;}.cls-20{fill:url(#linear-gradient-12);}.cls-22{fill:url(#linear-gradient-13);}.cls-24{fill:#9d99b5;}.cls-25{fill:url(#linear-gradient-14);}</style><radialGradient id="radial-gradient" cx="644.04" cy="775.25" r="111.48" gradientTransform="translate(-257.15 -167.64) scale(1.26 1.26)" gradientUnits="userSpaceOnUse"><stop offset="0" stop-color="#fff"/><stop offset="0.08" stop-color="#f6f6f6"/><stop offset="0.22" stop-color="#ddd"/><stop offset="0.31" stop-color="#cacaca"/><stop offset="0.4" stop-color="#b6b6b6"/><stop offset="0.59" stop-color="#828282"/><stop offset="0.86" stop-color="#2f2f2f"/><stop offset="1"/></radialGradient><linearGradient id="linear-gradient" x1="556.29" y1="868.89" x2="556.29" y2="718.57" gradientUnits="userSpaceOnUse"><stop offset="0" stop-color="#55fbff"/><stop offset="0.28" stop-color="#52f8fe"/><stop offset="0.49" stop-color="#48eef9"/><stop offset="0.68" stop-color="#38def2"/><stop offset="0.85" stop-color="#21c7e8"/><stop offset="0.99" stop-color="#0ab0dd"/></linearGradient><linearGradient id="linear-gradient-2" x1="419.64" y1="684.04" x2="693.13" y2="684.04" gradientTransform="translate(0.46 -0.81) rotate(0.13)" gradientUnits="userSpaceOnUse"><stop offset="0.01" stop-color="#f94e41"/><stop offset="0.12" stop-color="#f2483b"/><stop offset="0.68" stop-color="#d62e21"/><stop offset="1" stop-color="#cc2417"/></linearGradient><linearGradient id="linear-gradient-3" x1="118.6" y1="670.29" x2="309.51" y2="670.29" gradientUnits="userSpaceOnUse"><stop offset="0.01" stop-color="#ff871a"/><stop offset="0.27" stop-color="#fe7d21"/><stop offset="0.73" stop-color="#fb6134"/><stop offset="0.99" stop-color="#f94e41"/></linearGradient><linearGradient id="linear-gradient-4" x1="-10.6" y1="670.29" x2="180.31" y2="670.29" gradientTransform="matrix(-1, 0, 0, 1, 950.73, 0)" xlink:href="#linear-gradient-3"/><radialGradient id="radial-gradient-2" cx="428.3" cy="252.6" r="471.13" gradientUnits="userSpaceOnUse"><stop offset="0" stop-color="#ffe6dc"/><stop offset="0.16" stop-color="#f5dddd"/><stop offset="0.44" stop-color="#d9c4e0"/><stop offset="0.81" stop-color="#ab9ce4"/><stop offset="0.99" stop-color="#9185e7"/></radialGradient><linearGradient id="linear-gradient-5" x1="539.78" y1="475.67" x2="554.27" y2="475.67" gradientUnits="userSpaceOnUse"><stop offset="0" stop-color="#fff"/><stop offset="0.16" stop-color="#edeafa"/><stop offset="0.54" stop-color="#c5bcef"/><stop offset="0.83" stop-color="#ada0e8"/><stop offset="1" stop-color="#a496e5"/></linearGradient><linearGradient id="linear-gradient-6" x1="219.27" y1="291.75" x2="423.73" y2="291.75" xlink:href="#linear-gradient-5"/><linearGradient id="linear-gradient-7" x1="682.21" y1="255.34" x2="859.43" y2="255.34" xlink:href="#linear-gradient-5"/><linearGradient id="linear-gradient-8" x1="293.98" y1="284.87" x2="785.66" y2="284.87" xlink:href="#linear-gradient-5"/><linearGradient id="linear-gradient-9" x1="417.77" y1="396.08" x2="417.77" y2="7.06" gradientUnits="userSpaceOnUse"><stop offset="0.01" stop-color="#826ccf"/><stop offset="0.21" stop-color="#ab94d3"/><stop offset="0.46" stop-color="#d9c0d8"/><stop offset="0.66" stop-color="#f5dcdb"/><stop offset="0.77" stop-color="#ffe6dc"/></linearGradient><linearGradient id="linear-gradient-10" x1="261.08" y1="212.38" x2="650.1" y2="212.38" xlink:href="#linear-gradient-5"/><linearGradient id="linear-gradient-11" x1="417.77" y1="387.08" x2="417.77" y2="16.06" gradientUnits="userSpaceOnUse"><stop offset="0" stop-color="#ffe6dc"/><stop offset="0.07" stop-color="#f3dadb"/><stop offset="0.37" stop-color="#c3abd6"/><stop offset="0.64" stop-color="#9f89d2"/><stop offset="0.85" stop-color="#8a74d0"/><stop offset="0.99" stop-color="#826ccf"/></linearGradient><linearGradient id="linear-gradient-12" x1="417.77" y1="353.76" x2="417.77" y2="49.38" gradientUnits="userSpaceOnUse"><stop offset="0.01" stop-color="#ffee2f"/><stop offset="0.15" stop-color="#ffdb2b"/><stop offset="0.53" stop-color="#ffad22"/><stop offset="0.82" stop-color="#ff911c"/><stop offset="0.99" stop-color="#ff871a"/></linearGradient><linearGradient id="linear-gradient-13" x1="536.22" y1="278.57" x2="536.22" y2="80.46" gradientUnits="userSpaceOnUse"><stop offset="0" stop-color="#fff"/><stop offset="0.15" stop-color="#ffefde"/><stop offset="0.44" stop-color="#ffd19f"/><stop offset="0.69" stop-color="#ffbb72"/><stop offset="0.88" stop-color="#ffad55"/><stop offset="0.99" stop-color="#ffa84b"/></linearGradient><linearGradient id="linear-gradient-14" x1="545.04" y1="780.16" x2="580.3" y2="780.16" xlink:href="#linear-gradient-13"/></defs><title>spaceship</title><g class="cls-1"><g id="Layer_1" data-name="Layer 1"><path class="cls-2" d="M427.92,743.6s-20.6,105.59-7.49,149.07L471,843l86.17,147L639.6,847.12l52.45,49.69s18.74-70.39-20.6-151.14S427.92,743.6,427.92,743.6Z" transform="translate(-118.45 -31.07)"/><path class="cls-3" d="M476.17,737s-12.86,56.55-4.68,79.83l31.57-26.61,53.78,78.71,51.45-76.49L641,819s11.7-37.69-12.86-80.93S476.17,737,476.17,737Z" transform="translate(-118.45 -31.07)"/><path class="cls-4" d="M494.57,732.81S485,774.72,491.11,792l23.39-19.72,39.86,58.34,38.13-56.7,24.26,19.72s8.66-27.93-9.53-60S494.57,732.81,494.57,732.81Z" transform="translate(-118.45 -31.07)"/><path class="cls-5" d="M691.86,748.55a251.17,251.17,0,0,1-44.94,15.24c-106.38,26.78-228.57-3.45-228.57-3.45l14.21-85.64,10.88-78,221.4-2.31Z" transform="translate(-118.45 -31.07)"/><path class="cls-6" d="M691.86,748.55a251.17,251.17,0,0,1-44.94,15.24c-66-42.51-177.72-78-214.36-89.09l10.88-78,221.4-2.31Z" transform="translate(-118.45 -31.07)"/><path class="cls-7" d="M309.51,586.65l-40.85,126-94,289.82S31.14,658.19,203.39,388.25a479.65,479.65,0,0,1,36.09-50.14Z" transform="translate(-118.45 -31.07)"/><path class="cls-8" d="M248.3,369.57,239.38,338c-226.93,275.56-64.84,664.58-64.84,664.58l.28-.88C149.14,912.36,78.12,602.16,248.3,369.57Z" transform="translate(-118.45 -31.07)"/><path class="cls-6" d="M309.51,586.65l-40.85,126C265.42,600.7,222,448.33,203.39,388.25a479.65,479.65,0,0,1,36.09-50.14Z" transform="translate(-118.45 -31.07)"/><path class="cls-9" d="M770.42,586.65l40.85,126,94,289.82s143.51-344.28-28.74-614.22a479.65,479.65,0,0,0-36.09-50.14Z" transform="translate(-118.45 -31.07)"/><path class="cls-8" d="M831.63,369.57,840.56,338c226.92,275.56,64.83,664.58,64.83,664.58l-.28-.88C930.79,912.36,1001.81,602.16,831.63,369.57Z" transform="translate(-118.45 -31.07)"/><path class="cls-6" d="M770.42,586.65l40.85,126c3.24-111.95,46.68-264.32,65.27-324.4a479.65,479.65,0,0,0-36.09-50.14Z" transform="translate(-118.45 -31.07)"/><path class="cls-10" d="M861.45,360.66c0,126.43-69.38,236.22-171.39,291.34A310,310,0,0,1,563,689.17c-2.81.43-5.83.43-8.64.65a48.53,48.53,0,0,1-5.41.21c-3,.22-6,.22-9.07.22a313.29,313.29,0,0,1-167.28-48.41C315.09,606,269.49,551.93,243.12,487.53a337.32,337.32,0,0,1-22.48-88.83c-.65-5.19-1.08-10.38-1.29-15.78-.65-7.35-.87-14.7-.87-22.26,0-182.19,143.94-329.59,321.38-329.59,161,0,294.36,121,317.91,279.23.65,5.41,1.3,10.38,1.73,15.56A309.43,309.43,0,0,1,861.45,360.66Z" transform="translate(-118.45 -31.07)"/><g class="cls-11"><path class="cls-12" d="M554.27,689.74a46.33,46.33,0,0,1-5.41.22L539.78,261.6l5.41-.21Z" transform="translate(-118.45 -31.07)"/></g><g class="cls-11"><path class="cls-13" d="M423.73,184.88v5.4c-1.73,0-151.72,2.81-203.16,208.35-.65-5.19-1.08-10.38-1.3-15.78C274.82,187.47,422,184.88,423.73,184.88Z" transform="translate(-118.45 -31.07)"/></g><g class="cls-11"><path class="cls-14" d="M859.43,325.79C795.89,192.44,683.51,190.28,682.21,190.28v-5.4c1.3,0,109.57,2,175.49,125.35C858.35,315.63,859,320.61,859.43,325.79Z" transform="translate(-118.45 -31.07)"/></g><g class="cls-11"><path class="cls-15" d="M539.82,536.84c-135.55,0-245.84-113-245.84-252s110.29-252,245.84-252,245.84,113,245.84,252S675.37,536.84,539.82,536.84Zm0-498.54c-132.58,0-240.44,110.62-240.44,246.57S407.24,531.44,539.82,531.44,780.26,420.83,780.26,284.87,672.4,38.3,539.82,38.3Z" transform="translate(-118.45 -31.07)"/></g><circle class="cls-16" cx="417.77" cy="201.57" r="194.51"/><circle class="cls-17" cx="455.59" cy="212.38" r="194.51"/><circle class="cls-18" cx="417.77" cy="201.57" r="185.51"/><path class="cls-19" d="M372.58,641.84C315.09,606,269.49,551.93,243.12,487.53c30.47-179.6,136.37-195.38,136.37-195.38l48.63,75.64C351.83,423.77,357.67,553.23,372.58,641.84Z" transform="translate(-118.45 -31.07)"/><circle class="cls-20" cx="417.77" cy="201.57" r="152.19"/><path class="cls-21" d="M536.22,370.42c-81.62,0-148-64.3-151.82-145-.12,2.4-.37,4.77-.37,7.2a152.19,152.19,0,1,0,304.38,0c0-2.43-.25-4.8-.37-7.2C684.25,306.12,617.84,370.42,536.22,370.42Z" transform="translate(-118.45 -31.07)"/><path class="cls-22" d="M536.22,172.31a152.22,152.22,0,0,1,145.1,106.26,152.19,152.19,0,1,0-290.2,0A152.22,152.22,0,0,1,536.22,172.31Z" transform="translate(-118.45 -31.07)"/><path class="cls-23" d="M516.86,326.75c-6.46,11.2-26,12-43.68,1.81S446.45,301,452.91,289.83s26-12,43.69-1.82S523.33,315.55,516.86,326.75Z" transform="translate(-118.45 -31.07)"/><path class="cls-23" d="M453.16,265.54c-2.69,4.65-10.82,5-18.17.75s-11.11-11.45-8.43-16.11,10.83-5,18.17-.76S455.85,260.88,453.16,265.54Z" transform="translate(-118.45 -31.07)"/><path class="cls-24" d="M690.06,652A310,310,0,0,1,563,689.17l-13.61-177Z" transform="translate(-118.45 -31.07)"/><path class="cls-8" d="M549.37,1045.77v3.67s-.22-3-.87-8.86l-.21-3c-6.92-70.24-40.85-428.36-32.85-501.41,0,0,16.64-19,29.6-24v-1.29c.65.21,1.52.43,2.16.64.65-.21,1.52-.43,2.17-.64v1.29c13,5,29.61,24,29.61,24C587.84,617.2,549.37,1045.77,549.37,1045.77Z" transform="translate(-118.45 -31.07)"/><path class="cls-25" d="M549.37,1045.77v3.67s-.22-3-.87-8.86l-.21-3L545,512.16v-1.29c.65.21,1.52.43,2.16.64.65-.21,1.52-.43,2.17-.64v1.29c13,5,29.61,24,29.61,24C587.84,617.2,549.37,1045.77,549.37,1045.77Z" transform="translate(-118.45 -31.07)"/></g></g></svg>